<svg width="425" height="731" viewBox="0 0 425 731" fill="none" xmlns="http://www.w3.org/2000/svg">
<ellipse cx="143" cy="410.5" rx="143" ry="131.5" fill="#F4DD5D"/>
<path d="M263.9 509V470.5C235.433 501.767 198.1 517.4 151.9 517.4C137.433 517.4 123.2 515.067 109.2 510.4C95.2 505.733 82.6 498.733 71.4 489.4C60.2 479.6 51.1 467.7 44.1 453.7C37.1 439.7 33.6 423.6 33.6 405.4C33.6 386.733 37.1 370.4 44.1 356.4C51.1 342.4 60.2 330.733 71.4 321.4C82.6 312.067 95.2 305.3 109.2 301.1C123.2 296.433 137.433 294.1 151.9 294.1C175.233 294.1 196.233 297.833 214.9 305.3C234.033 312.767 250.367 324.433 263.9 340.3V279.4C263.9 256.533 255.733 239.033 239.4 226.9C223.533 214.3 203.233 208 178.5 208C138.833 208 104.3 223.633 74.9 254.9L50.4 218.5C86.3333 181.167 131.367 162.5 185.5 162.5C203.233 162.5 220.033 164.6 235.9 168.8C251.767 173 265.533 179.767 277.2 189.1C289.333 197.967 298.9 209.633 305.9 224.1C312.9 238.567 316.4 256.067 316.4 276.6V509H263.9ZM170.8 479.6C189.467 479.6 206.967 476.1 223.3 469.1C240.1 462.1 253.633 451.6 263.9 437.6V373.9C253.633 359.9 240.1 349.4 223.3 342.4C206.967 335.4 189.467 331.9 170.8 331.9C146.067 331.9 126 338.9 110.6 352.9C95.2 366.433 87.5 384.167 87.5 406.1C87.5 427.567 95.2 445.3 110.6 459.3C126 472.833 146.067 479.6 170.8 479.6Z" fill="black"/>
<rect x="112" y="562" width="6" height="33" fill="black"/>
<rect x="112" y="607" width="6" height="33" fill="black"/>
<rect x="112" y="653" width="6" height="33" fill="black"/>
<rect x="112" y="698" width="6" height="33" fill="black"/>
<ellipse cx="143" cy="410.5" rx="143" ry="131.5" fill="#F4DD5D"/>
<path d="M263.9 509V470.5C235.433 501.767 198.1 517.4 151.9 517.4C137.433 517.4 123.2 515.067 109.2 510.4C95.2 505.733 82.6 498.733 71.4 489.4C60.2 479.6 51.1 467.7 44.1 453.7C37.1 439.7 33.6 423.6 33.6 405.4C33.6 386.733 37.1 370.4 44.1 356.4C51.1 342.4 60.2 330.733 71.4 321.4C82.6 312.067 95.2 305.3 109.2 301.1C123.2 296.433 137.433 294.1 151.9 294.1C175.233 294.1 196.233 297.833 214.9 305.3C234.033 312.767 250.367 324.433 263.9 340.3V279.4C263.9 256.533 255.733 239.033 239.4 226.9C223.533 214.3 203.233 208 178.5 208C138.833 208 104.3 223.633 74.9 254.9L50.4 218.5C86.3333 181.167 131.367 162.5 185.5 162.5C203.233 162.5 220.033 164.6 235.9 168.8C251.767 173 265.533 179.767 277.2 189.1C289.333 197.967 298.9 209.633 305.9 224.1C312.9 238.567 316.4 256.067 316.4 276.6V509H263.9ZM170.8 479.6C189.467 479.6 206.967 476.1 223.3 469.1C240.1 462.1 253.633 451.6 263.9 437.6V373.9C253.633 359.9 240.1 349.4 223.3 342.4C206.967 335.4 189.467 331.9 170.8 331.9C146.067 331.9 126 338.9 110.6 352.9C95.2 366.433 87.5 384.167 87.5 406.1C87.5 427.567 95.2 445.3 110.6 459.3C126 472.833 146.067 479.6 170.8 479.6Z" fill="black"/>
<rect x="112" y="562" width="6" height="33" fill="black"/>
<rect x="112" y="607" width="6" height="33" fill="black"/>
<rect x="112" y="653" width="6" height="33" fill="black"/>
<rect x="112" y="698" width="6" height="33" fill="black"/>
</svg>
