<svg width="448" height="747" viewBox="0 0 448 747" fill="none" xmlns="http://www.w3.org/2000/svg">
<ellipse cx="97" cy="85" rx="97" ry="85" fill="#F4DD5D"/>
<path d="M128 448.3C137.333 463.233 151.1 475.833 169.3 486.1C187.967 496.367 207.8 501.5 228.8 501.5C246.067 501.5 261.467 498.233 275 491.7C288.533 485.167 299.967 476.067 309.3 464.4C318.633 452.733 325.633 438.967 330.3 423.1C335.433 407.233 338 389.967 338 371.3C338 352.633 335.433 335.367 330.3 319.5C325.633 303.167 318.633 289.167 309.3 277.5C299.967 265.833 288.533 256.733 275 250.2C261.467 243.667 246.067 240.4 228.8 240.4C207.8 240.4 187.967 245.767 169.3 256.5C151.1 267.233 137.333 280.067 128 295V448.3ZM75.5 540V73.1H128V253C141.533 234.333 158.1 219.867 177.7 209.6C197.3 198.867 218.767 193.5 242.1 193.5C264.033 193.5 284.1 197.7 302.3 206.1C320.967 214.5 336.833 226.4 349.9 241.8C363.433 257.2 373.933 275.867 381.4 297.8C388.867 319.733 392.6 344.233 392.6 371.3C392.6 398.833 388.867 423.567 381.4 445.5C373.933 467.433 363.433 486.1 349.9 501.5C336.833 516.433 320.967 528.1 302.3 536.5C284.1 544.433 264.033 548.4 242.1 548.4C218.3 548.4 196.367 543.033 176.3 532.3C156.7 521.1 140.6 506.867 128 489.6V540H75.5Z" fill="black"/>
<rect x="97" y="578" width="6" height="33" fill="black"/>
<rect x="97" y="623" width="6" height="33" fill="black"/>
<rect x="97" y="669" width="6" height="33" fill="black"/>
<rect x="97" y="714" width="6" height="33" fill="black"/>
<ellipse cx="97" cy="85" rx="97" ry="85" fill="#F4DD5D"/>
<path d="M128 448.3C137.333 463.233 151.1 475.833 169.3 486.1C187.967 496.367 207.8 501.5 228.8 501.5C246.067 501.5 261.467 498.233 275 491.7C288.533 485.167 299.967 476.067 309.3 464.4C318.633 452.733 325.633 438.967 330.3 423.1C335.433 407.233 338 389.967 338 371.3C338 352.633 335.433 335.367 330.3 319.5C325.633 303.167 318.633 289.167 309.3 277.5C299.967 265.833 288.533 256.733 275 250.2C261.467 243.667 246.067 240.4 228.8 240.4C207.8 240.4 187.967 245.767 169.3 256.5C151.1 267.233 137.333 280.067 128 295V448.3ZM75.5 540V73.1H128V253C141.533 234.333 158.1 219.867 177.7 209.6C197.3 198.867 218.767 193.5 242.1 193.5C264.033 193.5 284.1 197.7 302.3 206.1C320.967 214.5 336.833 226.4 349.9 241.8C363.433 257.2 373.933 275.867 381.4 297.8C388.867 319.733 392.6 344.233 392.6 371.3C392.6 398.833 388.867 423.567 381.4 445.5C373.933 467.433 363.433 486.1 349.9 501.5C336.833 516.433 320.967 528.1 302.3 536.5C284.1 544.433 264.033 548.4 242.1 548.4C218.3 548.4 196.367 543.033 176.3 532.3C156.7 521.1 140.6 506.867 128 489.6V540H75.5Z" fill="black"/>
<rect x="97" y="578" width="6" height="33" fill="black"/>
<rect x="97" y="623" width="6" height="33" fill="black"/>
<rect x="97" y="669" width="6" height="33" fill="black"/>
<rect x="97" y="714" width="6" height="33" fill="black"/>
</svg>
