<svg width="455" height="678" viewBox="0 0 455 678" fill="none" xmlns="http://www.w3.org/2000/svg">
<ellipse cx="234" cy="372" rx="81" ry="77" fill="#F2D73D"/>
<path d="M387.8 509L346.5 405.4H114.1L72.8 509H6.3L193.9 42.1H266L454.3 509H387.8ZM230.3 102.3L130.9 353.6H329L230.3 102.3Z" fill="black"/>
<rect x="234" y="509" width="6" height="33" fill="black"/>
<rect x="234" y="554" width="6" height="33" fill="black"/>
<rect x="234" y="600" width="6" height="33" fill="black"/>
<rect x="234" y="645" width="6" height="33" fill="black"/>
<ellipse cx="234" cy="372" rx="81" ry="77" fill="#F2D73D"/>
<path d="M387.8 509L346.5 405.4H114.1L72.8 509H6.3L193.9 42.1H266L454.3 509H387.8ZM230.3 102.3L130.9 353.6H329L230.3 102.3Z" fill="black"/>
<rect x="234" y="509" width="6" height="33" fill="black"/>
<rect x="234" y="554" width="6" height="33" fill="black"/>
<rect x="234" y="600" width="6" height="33" fill="black"/>
<rect x="234" y="645" width="6" height="33" fill="black"/>
</svg>
