<svg width="448" height="738" viewBox="0 0 448 738" fill="none" xmlns="http://www.w3.org/2000/svg">
<ellipse cx="97" cy="92.5" rx="97" ry="92.5" fill="#84B2F7"/>
<path d="M101.4 155.6C92.0667 155.6 83.9 152.333 76.9 145.8C69.9 138.8 66.4 130.4 66.4 120.6C66.4 110.8 69.9 102.4 76.9 95.4C83.9 88.4 92.0667 84.9 101.4 84.9C111.2 84.9 119.6 88.4 126.6 95.4C133.6 102.4 137.1 110.8 137.1 120.6C137.1 130.4 133.6 138.8 126.6 145.8C119.6 152.333 111.2 155.6 101.4 155.6ZM75.5 542V203.9H128V542H75.5Z" fill="black"/>
<rect x="94" y="569" width="6" height="33" fill="black"/>
<rect x="94" y="614" width="6" height="33" fill="black"/>
<rect x="94" y="660" width="6" height="33" fill="black"/>
<rect x="94" y="705" width="6" height="33" fill="black"/>
<ellipse cx="97" cy="92.5" rx="97" ry="92.5" fill="#84B2F7"/>
<path d="M101.4 155.6C92.0667 155.6 83.9 152.333 76.9 145.8C69.9 138.8 66.4 130.4 66.4 120.6C66.4 110.8 69.9 102.4 76.9 95.4C83.9 88.4 92.0667 84.9 101.4 84.9C111.2 84.9 119.6 88.4 126.6 95.4C133.6 102.4 137.1 110.8 137.1 120.6C137.1 130.4 133.6 138.8 126.6 145.8C119.6 152.333 111.2 155.6 101.4 155.6ZM75.5 542V203.9H128V542H75.5Z" fill="black"/>
<rect x="94" y="569" width="6" height="33" fill="black"/>
<rect x="94" y="614" width="6" height="33" fill="black"/>
<rect x="94" y="660" width="6" height="33" fill="black"/>
<rect x="94" y="705" width="6" height="33" fill="black"/>
</svg>
