<svg width="443" height="874" viewBox="0 0 443 874" fill="none" xmlns="http://www.w3.org/2000/svg">
<ellipse cx="81" cy="568" rx="81" ry="77" fill="#84B2F7"/>
<path d="M60 593.7C63.7333 595.567 68.4 596.967 74 597.9C79.6 598.833 84.5 599.3 88.7 599.3C100.367 599.3 110.167 596.733 118.1 591.6C126.033 586.933 133.033 577.6 139.1 563.6L161.5 512.5L20.1 170.9H76.8L189.5 448.1L301.5 170.9H358.9L189.5 577.6C179.233 602.333 165.7 619.833 148.9 630.1C132.1 640.367 112.5 645.733 90.1 646.2C84.5 646.2 77.9667 645.733 70.5 644.8C63.0333 643.867 56.7333 642.7 51.6 641.3L60 593.7Z" fill="black"/>
<rect x="104" y="705" width="6" height="33" fill="black"/>
<rect x="104" y="750" width="6" height="33" fill="black"/>
<rect x="104" y="796" width="6" height="33" fill="black"/>
<rect x="104" y="841" width="6" height="33" fill="black"/>
<ellipse cx="81" cy="568" rx="81" ry="77" fill="#84B2F7"/>
<path d="M60 593.7C63.7333 595.567 68.4 596.967 74 597.9C79.6 598.833 84.5 599.3 88.7 599.3C100.367 599.3 110.167 596.733 118.1 591.6C126.033 586.933 133.033 577.6 139.1 563.6L161.5 512.5L20.1 170.9H76.8L189.5 448.1L301.5 170.9H358.9L189.5 577.6C179.233 602.333 165.7 619.833 148.9 630.1C132.1 640.367 112.5 645.733 90.1 646.2C84.5 646.2 77.9667 645.733 70.5 644.8C63.0333 643.867 56.7333 642.7 51.6 641.3L60 593.7Z" fill="black"/>
<rect x="104" y="705" width="6" height="33" fill="black"/>
<rect x="104" y="750" width="6" height="33" fill="black"/>
<rect x="104" y="796" width="6" height="33" fill="black"/>
<rect x="104" y="841" width="6" height="33" fill="black"/>
</svg>
