<svg width="1282" height="3322" viewBox="0 0 1282 3322" fill="none" xmlns="http://www.w3.org/2000/svg">
<g clip-path="url(#clip0_105:33)">
<rect width="1282" height="3322" fill="white"/>
<rect x="-21.9985" y="1870" width="1304" height="3858" fill="#FDFAF3"/>
<rect x="-16.9985" width="1322" height="2067" fill="black"/>
<rect x="-26.9985" y="2013" width="1797" height="4297" fill="#FDFAF3"/>
<path d="M474.077 3022.26C1312.69 3375.58 1554.96 2769.6 1570.65 2429C1435.85 1708.79 629.526 2128.16 243.216 2427.87C-440.225 3072.06 -325.718 3357.78 -183.034 3420.12C-140.506 2964.27 272.348 2969.32 474.077 3022.26Z" fill="#84B2F7"/>
<path d="M6.07688 2693.82C780.268 3455.93 1346.56 2946.26 1529.06 2602.63C1725.64 1796.29 613.933 1845.97 33.5082 1971.59C-1048.49 2311.31 -1057.7 2660.16 -927.05 2792.12C-658.535 2342.43 -195.665 2543.52 6.07688 2693.82Z" fill="#84B2F7"/>
</g>
<defs>
<clipPath id="clip0_105:33">
<rect width="1282" height="3322" fill="white"/>
</clipPath>
</defs>
</svg>
