<svg width="1280" height="481" viewBox="0 0 1280 481" fill="none" xmlns="http://www.w3.org/2000/svg">
<path d="M-56 370H465.647L474.091 343.864L483.473 349.838H505.052L511.619 352.825H524.754L533.198 339.383L542.58 349.838L552.901 343.864H561.345L571.665 336.396L584.8 341.623L600.75 332.662H612.008L617.637 341.623L630.772 336.396H650.475L657.981 320.714L669.239 336.396L699.262 332.662L706.768 323.701L717.088 336.396L730.223 326.688L739.605 336.396L753.678 326.688H766.813L772.443 319.221L779.948 323.701L809.033 296.071V308.766L824.044 292.338L833.426 305.779H847.5L851.253 311.007H859.696L892.534 266.948L901.916 287.857H911.298L941.321 242.305L976.035 273.669L1007.93 216.916H1019.19L1028.57 196.006L1037.96 222.143L1049.22 205.714L1065.17 216.916L1080.18 196.006L1094.25 234.838L1105.51 191.526L1132.72 185.552H1144.91L1166.49 181.818L1174.94 185.552L1196.52 160.909L1213.4 216.916L1219.03 191.526L1228.41 185.552L1250.93 140L1268.76 165.39L1280.95 160.909L1286.58 165.39L1299.72 148.961L1326.93 191.526L1341 176.591" stroke="#84B2F7" stroke-width="3"/>
<path d="M414 370L423.377 342.269L435.567 370H513.395L526.523 346.766L540.588 352.762L549.965 348.265L560.279 351.263L581.846 352.762L587.472 348.265L600.6 351.263H609.039L619.354 355.76L628.731 349.764L639.045 355.76L658.737 342.269L671.864 351.263L679.366 312.29L705.621 326.53L716.873 303.296L745.942 301.047L764.695 256.828L789.075 244.086L794.702 212.608L802.203 208.111L812.518 163.142L823.77 184.127L833.147 142.906H845.337L852.838 124.168L862.215 155.647L891.283 65.7084L904.411 91.191L919.414 70.9548L930.666 85.9446L941.919 62.7105L947.545 56.7146L959.735 18.4908L969.112 37.2279L977.551 82.9466L997.242 5L1007.56 31.9815H1016.93L1036.63 100.934H1046L1063.82 130.914H1078.82L1086.32 148.152L1095.7 189.374L1114.45 149.651L1151.96 222.351L1162.28 213.357L1173.53 224.6L1191.34 213.357L1201.66 224.6L1210.1 249.333L1241.04 226.848L1259.79 255.329L1270.11 244.836L1278.55 262.074L1297.3 268.819L1309.49 263.573L1325.43 286.057L1347 272.567" stroke="#F2D73D" stroke-width="3"/>
<rect x="83" y="201" width="59" height="169" fill="#F2D73D"/>
<rect x="142" y="292" width="58" height="78" fill="#84B2F7"/>
<path d="M90.488 430.864C92.776 430.864 94.504 431.184 95.672 431.824C96.84 432.464 97.424 433.592 97.424 435.208C97.424 436.184 97.192 437.008 96.728 437.68C96.28 438.352 95.632 438.76 94.784 438.904V439.024C95.36 439.136 95.88 439.336 96.344 439.624C96.808 439.912 97.176 440.328 97.448 440.872C97.72 441.416 97.856 442.136 97.856 443.032C97.856 444.584 97.296 445.8 96.176 446.68C95.056 447.56 93.52 448 91.568 448H85.16V430.864H90.488ZM90.896 437.656C91.952 437.656 92.68 437.488 93.08 437.152C93.496 436.816 93.704 436.328 93.704 435.688C93.704 435.032 93.464 434.56 92.984 434.272C92.504 433.984 91.744 433.84 90.704 433.84H88.784V437.656H90.896ZM88.784 440.536V445H91.16C92.248 445 93.008 444.792 93.44 444.376C93.872 443.944 94.088 443.376 94.088 442.672C94.088 442.032 93.864 441.52 93.416 441.136C92.984 440.736 92.192 440.536 91.04 440.536H88.784ZM112.489 448.24C110.537 448.24 109.025 447.704 107.953 446.632C106.897 445.544 106.369 443.84 106.369 441.52C106.369 439.92 106.641 438.616 107.185 437.608C107.729 436.6 108.481 435.856 109.441 435.376C110.417 434.896 111.537 434.656 112.801 434.656C113.697 434.656 114.473 434.744 115.129 434.92C115.801 435.096 116.385 435.304 116.881 435.544L115.825 438.304C115.265 438.08 114.737 437.896 114.241 437.752C113.761 437.608 113.281 437.536 112.801 437.536C110.945 437.536 110.017 438.856 110.017 441.496C110.017 442.808 110.257 443.776 110.737 444.4C111.233 445.024 111.921 445.336 112.801 445.336C113.553 445.336 114.217 445.24 114.793 445.048C115.369 444.84 115.929 444.56 116.473 444.208V447.256C115.929 447.608 115.353 447.856 114.745 448C114.153 448.16 113.401 448.24 112.489 448.24ZM126.785 434.656C128.257 434.656 129.449 435.232 130.361 436.384C131.273 437.52 131.729 439.2 131.729 441.424C131.729 443.648 131.257 445.344 130.313 446.512C129.369 447.664 128.161 448.24 126.689 448.24C125.745 448.24 124.993 448.072 124.433 447.736C123.873 447.384 123.417 446.992 123.065 446.56H122.873C123.001 447.232 123.065 447.872 123.065 448.48V453.76H119.489V434.896H122.393L122.897 436.6H123.065C123.417 436.072 123.889 435.616 124.481 435.232C125.073 434.848 125.841 434.656 126.785 434.656ZM125.633 437.512C124.705 437.512 124.049 437.8 123.665 438.376C123.297 438.952 123.097 439.832 123.065 441.016V441.4C123.065 442.664 123.249 443.64 123.617 444.328C124.001 445 124.689 445.336 125.681 445.336C126.497 445.336 127.097 445 127.481 444.328C127.881 443.64 128.081 442.656 128.081 441.376C128.081 438.8 127.265 437.512 125.633 437.512ZM140.077 434.656C141.885 434.656 143.317 435.176 144.373 436.216C145.429 437.24 145.957 438.704 145.957 440.608V442.336H137.509C137.541 443.344 137.837 444.136 138.397 444.712C138.973 445.288 139.765 445.576 140.773 445.576C141.621 445.576 142.389 445.496 143.077 445.336C143.765 445.16 144.477 444.896 145.213 444.544V447.304C144.573 447.624 143.893 447.856 143.173 448C142.469 448.16 141.613 448.24 140.605 448.24C139.293 448.24 138.133 448 137.125 447.52C136.117 447.024 135.325 446.28 134.749 445.288C134.173 444.296 133.885 443.048 133.885 441.544C133.885 440.008 134.141 438.736 134.653 437.728C135.181 436.704 135.909 435.936 136.837 435.424C137.765 434.912 138.845 434.656 140.077 434.656ZM140.101 437.2C139.413 437.2 138.837 437.424 138.373 437.872C137.925 438.32 137.661 439.016 137.581 439.96H142.597C142.581 439.16 142.373 438.504 141.973 437.992C141.573 437.464 140.949 437.2 140.101 437.2ZM160.64 434.896V445.384H162.56V452.704H159.344V448H150.536V452.704H147.32V445.384H148.424C149 444.504 149.488 443.504 149.888 442.384C150.288 441.248 150.608 440.04 150.848 438.76C151.088 437.48 151.264 436.192 151.376 434.896H160.64ZM154.376 437.584C154.184 439.04 153.92 440.424 153.584 441.736C153.248 443.032 152.776 444.248 152.168 445.384H157.064V437.584H154.376ZM168.37 434.896V439.936H173.362V434.896H176.938V448H173.362V442.6H168.37V448H164.794V434.896H168.37ZM186.085 434.656C187.893 434.656 189.325 435.176 190.381 436.216C191.437 437.24 191.965 438.704 191.965 440.608V442.336H183.517C183.549 443.344 183.845 444.136 184.405 444.712C184.981 445.288 185.773 445.576 186.781 445.576C187.629 445.576 188.397 445.496 189.085 445.336C189.773 445.16 190.485 444.896 191.221 444.544V447.304C190.581 447.624 189.901 447.856 189.181 448C188.477 448.16 187.621 448.24 186.613 448.24C185.301 448.24 184.141 448 183.133 447.52C182.125 447.024 181.333 446.28 180.757 445.288C180.181 444.296 179.893 443.048 179.893 441.544C179.893 440.008 180.149 438.736 180.661 437.728C181.189 436.704 181.917 435.936 182.845 435.424C183.773 434.912 184.853 434.656 186.085 434.656ZM186.109 437.2C185.421 437.2 184.845 437.424 184.381 437.872C183.933 438.32 183.669 439.016 183.589 439.96H188.605C188.589 439.16 188.381 438.504 187.981 437.992C187.581 437.464 186.957 437.2 186.109 437.2ZM211.376 434.896V448H208.04V441.568C208.04 440.928 208.048 440.304 208.064 439.696C208.096 439.088 208.136 438.528 208.184 438.016H208.112L204.488 448H201.8L198.128 437.992H198.032C198.096 438.52 198.136 439.088 198.152 439.696C198.184 440.288 198.2 440.944 198.2 441.664V448H194.864V434.896H199.928L203.192 443.776L206.504 434.896H211.376Z" fill="white" fill-opacity="0.83"/>
<path d="M352.176 448V445H345.648C349.8 441.976 352.056 439.6 352.056 436.864C352.056 433.672 349.368 431.752 345.936 431.752C343.704 431.752 341.328 432.568 339.768 434.368L341.712 436.624C342.792 435.496 344.184 434.776 346.008 434.776C347.328 434.776 348.6 435.448 348.6 436.864C348.6 438.832 346.68 440.464 340.128 445.312V448H352.176ZM360.831 448.288C365.415 448.288 367.455 444.136 367.455 440.008C367.455 435.88 365.415 431.752 360.831 431.752C356.247 431.752 354.207 435.88 354.207 440.008C354.207 444.136 356.247 448.288 360.831 448.288ZM360.831 445.264C358.551 445.264 357.687 442.96 357.687 440.008C357.687 437.056 358.551 434.776 360.831 434.776C363.135 434.776 363.975 437.056 363.975 440.008C363.975 442.96 363.111 445.264 360.831 445.264ZM375.713 448.288C380.297 448.288 382.337 444.136 382.337 440.008C382.337 435.88 380.297 431.752 375.713 431.752C371.129 431.752 369.089 435.88 369.089 440.008C369.089 444.136 371.129 448.288 375.713 448.288ZM375.713 445.264C373.433 445.264 372.569 442.96 372.569 440.008C372.569 437.056 373.433 434.776 375.713 434.776C378.017 434.776 378.857 437.056 378.857 440.008C378.857 442.96 377.993 445.264 375.713 445.264ZM390.5 448.288C394.364 448.288 396.908 446.128 396.908 442.744C396.908 439.504 394.484 437.56 391.772 437.56C390.308 437.56 389.012 438.136 388.244 438.904V434.992H395.828V431.992H384.836V441.16L387.212 441.808C388.172 440.896 389.252 440.512 390.572 440.512C392.396 440.512 393.452 441.472 393.452 442.888C393.452 444.184 392.372 445.264 390.476 445.264C388.796 445.264 387.308 444.64 386.228 443.512L384.332 445.888C385.7 447.376 387.716 448.288 390.5 448.288Z" fill="white" fill-opacity="0.83"/>
<path d="M538.176 448V445H531.648C535.8 441.976 538.056 439.6 538.056 436.864C538.056 433.672 535.368 431.752 531.936 431.752C529.704 431.752 527.328 432.568 525.768 434.368L527.712 436.624C528.792 435.496 530.184 434.776 532.008 434.776C533.328 434.776 534.6 435.448 534.6 436.864C534.6 438.832 532.68 440.464 526.128 445.312V448H538.176ZM546.831 448.288C551.415 448.288 553.455 444.136 553.455 440.008C553.455 435.88 551.415 431.752 546.831 431.752C542.247 431.752 540.207 435.88 540.207 440.008C540.207 444.136 542.247 448.288 546.831 448.288ZM546.831 445.264C544.551 445.264 543.687 442.96 543.687 440.008C543.687 437.056 544.551 434.776 546.831 434.776C549.135 434.776 549.975 437.056 549.975 440.008C549.975 442.96 549.111 445.264 546.831 445.264ZM561.713 448.288C566.297 448.288 568.337 444.136 568.337 440.008C568.337 435.88 566.297 431.752 561.713 431.752C557.129 431.752 555.089 435.88 555.089 440.008C555.089 444.136 557.129 448.288 561.713 448.288ZM561.713 445.264C559.433 445.264 558.569 442.96 558.569 440.008C558.569 437.056 559.433 434.776 561.713 434.776C564.017 434.776 564.857 437.056 564.857 440.008C564.857 442.96 563.993 445.264 561.713 445.264ZM575.804 448L581.756 434.368V431.992H569.732V434.992H577.796L572.06 448H575.804Z" fill="white" fill-opacity="0.83"/>
<path d="M723.176 448V445H716.648C720.8 441.976 723.056 439.6 723.056 436.864C723.056 433.672 720.368 431.752 716.936 431.752C714.704 431.752 712.328 432.568 710.768 434.368L712.712 436.624C713.792 435.496 715.184 434.776 717.008 434.776C718.328 434.776 719.6 435.448 719.6 436.864C719.6 438.832 717.68 440.464 711.128 445.312V448H723.176ZM731.831 448.288C736.415 448.288 738.455 444.136 738.455 440.008C738.455 435.88 736.415 431.752 731.831 431.752C727.247 431.752 725.207 435.88 725.207 440.008C725.207 444.136 727.247 448.288 731.831 448.288ZM731.831 445.264C729.551 445.264 728.687 442.96 728.687 440.008C728.687 437.056 729.551 434.776 731.831 434.776C734.135 434.776 734.975 437.056 734.975 440.008C734.975 442.96 734.111 445.264 731.831 445.264ZM747.553 448V431.992H744.577L739.537 437.056L741.481 439.096L744.145 436.384V448H747.553ZM757.421 448V431.992H754.445L749.405 437.056L751.349 439.096L754.013 436.384V448H757.421Z" fill="white" fill-opacity="0.83"/>
<path d="M897.176 448V445H890.648C894.8 441.976 897.056 439.6 897.056 436.864C897.056 433.672 894.368 431.752 890.936 431.752C888.704 431.752 886.328 432.568 884.768 434.368L886.712 436.624C887.792 435.496 889.184 434.776 891.008 434.776C892.328 434.776 893.6 435.448 893.6 436.864C893.6 438.832 891.68 440.464 885.128 445.312V448H897.176ZM905.831 448.288C910.415 448.288 912.455 444.136 912.455 440.008C912.455 435.88 910.415 431.752 905.831 431.752C901.247 431.752 899.207 435.88 899.207 440.008C899.207 444.136 901.247 448.288 905.831 448.288ZM905.831 445.264C903.551 445.264 902.687 442.96 902.687 440.008C902.687 437.056 903.551 434.776 905.831 434.776C908.135 434.776 908.975 437.056 908.975 440.008C908.975 442.96 908.111 445.264 905.831 445.264ZM921.553 448V431.992H918.577L913.537 437.056L915.481 439.096L918.145 436.384V448H921.553ZM929.933 448.288C933.773 448.288 936.245 446.344 936.245 443.584C936.245 441.184 934.133 439.912 932.501 439.744C934.277 439.432 936.005 438.112 936.005 436.096C936.005 433.432 933.701 431.752 929.957 431.752C927.149 431.752 925.133 432.832 923.837 434.296L925.541 436.432C926.669 435.352 928.061 434.776 929.621 434.776C931.277 434.776 932.597 435.4 932.597 436.672C932.597 437.848 931.397 438.376 929.621 438.376C929.021 438.376 927.917 438.376 927.629 438.352V441.424C927.869 441.4 928.949 441.376 929.621 441.376C931.853 441.376 932.837 441.952 932.837 443.224C932.837 444.424 931.757 445.264 929.813 445.264C928.253 445.264 926.501 444.592 925.421 443.44L923.621 445.72C924.797 447.16 927.005 448.288 929.933 448.288Z" fill="white" fill-opacity="0.83"/>
<path d="M1079.18 448V445H1072.65C1076.8 441.976 1079.06 439.6 1079.06 436.864C1079.06 433.672 1076.37 431.752 1072.94 431.752C1070.7 431.752 1068.33 432.568 1066.77 434.368L1068.71 436.624C1069.79 435.496 1071.18 434.776 1073.01 434.776C1074.33 434.776 1075.6 435.448 1075.6 436.864C1075.6 438.832 1073.68 440.464 1067.13 445.312V448H1079.18ZM1087.83 448.288C1092.41 448.288 1094.45 444.136 1094.45 440.008C1094.45 435.88 1092.41 431.752 1087.83 431.752C1083.25 431.752 1081.21 435.88 1081.21 440.008C1081.21 444.136 1083.25 448.288 1087.83 448.288ZM1087.83 445.264C1085.55 445.264 1084.69 442.96 1084.69 440.008C1084.69 437.056 1085.55 434.776 1087.83 434.776C1090.13 434.776 1090.97 437.056 1090.97 440.008C1090.97 442.96 1090.11 445.264 1087.83 445.264ZM1103.55 448V431.992H1100.58L1095.54 437.056L1097.48 439.096L1100.15 436.384V448H1103.55ZM1112.48 448.288C1116.35 448.288 1118.89 446.128 1118.89 442.744C1118.89 439.504 1116.47 437.56 1113.76 437.56C1112.29 437.56 1111 438.136 1110.23 438.904V434.992H1117.81V431.992H1106.82V441.16L1109.2 441.808C1110.16 440.896 1111.24 440.512 1112.56 440.512C1114.38 440.512 1115.44 441.472 1115.44 442.888C1115.44 444.184 1114.36 445.264 1112.46 445.264C1110.78 445.264 1109.29 444.64 1108.21 443.512L1106.32 445.888C1107.68 447.376 1109.7 448.288 1112.48 448.288Z" fill="white" fill-opacity="0.83"/>
<rect x="-86" y="468" width="1433" height="1" fill="#C4C4C4"/>
</svg>
